# xmcd
#
# Track frame offsets:
#	150
#	14528
#	27473
#	41513
#	57061
#	72819
#	87129
#	100082
#	115517
#
# Disc length: 1750 seconds
#
# Revision: 1
# Processed by: cddbd v1.5.2PL0 Copyright (c) Steve Scherf et al.
# Submitted via: audiograbber 1.83.01
#
DISCID=6606d409
DTITLE=Steve Wariner - Greatest Hits
DYEAR=1985
DGENRE=Country
TTITLE0=Lonely Women Make Good Lovers
TTITLE1=By Now
TTITLE2=When We're Together
TTITLE3=All Roads Lead To You
TTITLE4=Kansas City Lights
TTITLE5=Midnight Fire
TTITLE6=Your Memory
TTITLE7=You Make It Feel So Right
TTITLE8=Why Goodbye
EXTD=This CD was made from one of my LP's
EXTT0=
EXTT1=
EXTT2=
EXTT3=
EXTT4=
EXTT5=
EXTT6=
EXTT7=
EXTT8=
PLAYORDER=
